<svg height="496pt" viewBox="0 -96 496 496" width="496pt" xmlns="http://www.w3.org/2000/svg" xmlns:xlink="http://www.w3.org/1999/xlink"><linearGradient id="linear0" gradientUnits="userSpaceOnUse" x1="248" x2="248" y1="304" y2="0"><stop offset="0" stop-color="#9f2fff"/><stop offset="1" stop-color="#0bb1d3"/></linearGradient><path d="m104 224c-13.230469 0-24 10.769531-24 24s10.769531 24 24 24 24-10.769531 24-24-10.769531-24-24-24zm0 32c-4.40625 0-8-3.585938-8-8s3.59375-8 8-8 8 3.585938 8 8-3.59375 8-8 8zm272-32c-13.230469 0-24 10.769531-24 24s10.769531 24 24 24 24-10.769531 24-24-10.769531-24-24-24zm0 32c-4.40625 0-8-3.585938-8-8s3.59375-8 8-8 8 3.585938 8 8-3.59375 8-8 8zm78.679688-229.265625-3.441407-10.328125c-3.277343-9.8125-12.421875-16.40625-22.765625-16.40625h-236.6875c-32.425781 0-62.113281 17.734375-77.480468 46.28125l-31.5625 58.605469-50.589844 10.121093c-18.632813 3.726563-32.152344 20.222657-32.152344 39.222657v61.769531c0 22.054688 17.945312 40 40 40h8.640625c3.902344 27.089844 27.207031 48 55.359375 48s51.457031-20.910156 55.359375-48h161.28125c3.902344 27.089844 27.207031 48 55.359375 48s51.457031-20.910156 55.359375-48h24.640625c22.054688 0 40-17.945312 40-40v-113.351562c0-30.550782-15.761719-59.367188-41.320312-75.914063zm-437.246094 119.355469c8.671875 3.695312 14.566406 12.15625 14.566406 21.910156 0 4.414062-3.59375 8-8 8h-8v-21.769531c0-2.839844.503906-5.582031 1.433594-8.140625zm.039062 77.910156h36.007813c-2.375 4.976562-4.023438 10.351562-4.839844 16h-8.640625c-10.414062 0-19.214844-6.710938-22.527344-16zm86.527344 64c-22.054688 0-40-17.945312-40-40s17.945312-40 40-40 40 17.945312 40 40-17.945312 40-40 40zm311.113281-80c-10.105469-9.878906-23.90625-16-39.113281-16s-29.015625 6.121094-39.113281 16h-80.886719v-80h160v16h-32v16h32v48zm-260.59375 16h170.960938c-2.375 4.976562-4.023438 10.351562-4.839844 16h-161.28125c-.816406-5.648438-2.464844-11.023438-4.839844-16zm101.480469-112v-64h114.335938c9.871093 0 18.617187 5.921875 22.28125 15.089844l19.566406 48.910156zm-16 0h-56v-16c0-8.824219-7.175781-16-16-16h-19.054688l4.941407-9.886719c6.816406-13.640625 20.527343-22.113281 35.777343-22.113281h50.335938zm-99.054688-16h27.054688v16h-35.054688zm-12.945312 32h112v16h-32v16h32v48h-96.886719c-4.394531-4.296875-9.503906-7.839844-15.113281-10.519531zm248 160c-22.054688 0-40-17.945312-40-40s17.945312-40 40-40 40 17.945312 40 40-17.945312 40-40 40zm80-48h-24.640625c-.816406-5.648438-2.464844-11.023438-4.839844-16h52.007813c-3.3125 9.289062-12.113282 16-22.527344 16zm24-64h-8c-4.40625 0-8-3.585938-8-8v-32c0-4.414062 3.59375-8 8-8h8zm0-64h-8c-13.230469 0-24 10.769531-24 24v32c0 13.230469 10.769531 24 24 24h8v16h-48v-89.535156l-24.519531-61.3125c-6.121094-15.289063-20.695313-25.152344-37.144531-25.152344h-180.671876c-21.34375 0-40.535156 11.855469-50.089843 30.953125l-27.574219 55.160156v74.527344c-2.625-.375-5.28125-.640625-8-.640625-15.214844 0-29.015625 6.121094-39.113281 16h-48.886719v-16h8c13.230469 0 24-10.769531 24-24 0-14.617188-7.871094-27.574219-19.929688-34.542969 2.210938-1.273437 4.617188-2.242187 7.21875-2.761719l57.96875-11.582031 35.132813-65.25c12.578125-23.359375 36.867187-37.863281 63.394531-37.863281h236.679688c3.445312 0 6.496094 2.191406 7.589844 5.472656l5.289062 15.863282 2.535156 1.519531c22.28125 13.367187 36.121094 37.816406 36.121094 63.792969zm0 0" fill="url(#linear0)"/></svg>